<?xml version="1.0" encoding="utf-8"?>
<!-- Generator: Adobe Illustrator 22.1.0, SVG Export Plug-In . SVG Version: 6.00 Build 0)  -->
<svg version="1.1" id="Layer_1" xmlns="http://www.w3.org/2000/svg" xmlns:xlink="http://www.w3.org/1999/xlink" x="0px" y="0px"
	 viewBox="0 0 133 148" style="enable-background:new 0 0 133 148;" xml:space="preserve">
<style type="text/css">
	.st0{fill:none;stroke:#000000;stroke-width:2;stroke-miterlimit:10;}
</style>
<g>
	<path d="M29.6,77.7H47c4.5,0,8.5,0.9,12,2.7c3.5,1.8,6.1,4.3,8.1,7.6c1.9,3.2,2.9,6.9,2.9,11.1c0,4.1-1,7.8-2.9,11.1
		c-1.9,3.2-4.6,5.8-8.1,7.6c-3.5,1.8-7.4,2.7-12,2.7H29.6V77.7z M46.8,116.5c3.7,0,7-0.7,9.8-2.2c2.8-1.5,5-3.5,6.5-6.2
		c1.5-2.6,2.3-5.6,2.3-9.1s-0.8-6.4-2.3-9.1c-1.5-2.6-3.7-4.7-6.5-6.2c-2.8-1.5-6.1-2.2-9.8-2.2H34.1v34.9H46.8z"/>
	<path d="M92.8,105.6v14.8h-4.5v-14.8L71.3,77.7h4.8l14.6,24l14.6-24h4.5L92.8,105.6z"/>
</g>
<g>
	<path d="M56.3,54.5H32.5l-5.1,11.4h-4.7l19.5-42.7h4.5l19.5,42.7h-4.8L56.3,54.5z M54.7,50.8L44.4,27.9L34.2,50.8H54.7z"/>
	<path d="M108.9,23.2v42.7h-3.7L77.8,31.2v34.6h-4.5V23.2H77l27.5,34.6V23.2H108.9z"/>
</g>
<line class="st0" x1="139" y1="122" x2="139" y2="25"/>
<g>
	<path d="M186.8,93.8h-33v-1.9h1.5c4.7,0,4.8-0.7,4.8-2.9V56.9c0-2.2-0.1-2.9-4.8-2.9h-1.5v-1.9c2.1,0.2,6.9,0.2,9.3,0.2
		c2.5,0,8.1,0,10.2-0.2V54h-2c-5.8,0-5.8,0.9-5.8,2.9v32.5c0,2,0.1,2.4,3,2.4h5.7c11.2,0,12.1-7.7,12.8-13.8h1.5L186.8,93.8z"/>
	<path d="M228.5,93.8h-33v-1.9h1.5c4.7,0,4.8-0.7,4.8-2.9V56.9c0-2.2-0.1-2.9-4.8-2.9h-1.5v-1.9c2.1,0.2,6.9,0.2,9.3,0.2
		c2.5,0,8.1,0,10.2-0.2V54h-2c-5.8,0-5.8,0.9-5.8,2.9v32.5c0,2,0.1,2.4,3,2.4h5.7c11.2,0,12.1-7.7,12.8-13.8h1.5L228.5,93.8z"/>
	<path d="M272.5,93.6c-2.3,0-6.6,0-8.8,0.2v-1.9c1.6,0,5,0,5-1.8c0-0.2,0-0.3-0.3-1.1l-3.5-9.3h-16.2l-2.9,7.9
		c-0.3,0.7-0.3,0.9-0.3,1.2c0,1.5,1.4,3.1,4.5,3.1v1.9l-7.1-0.2c-2.4,0-4.9,0.1-6.2,0.2v-1.9c5.4-0.1,6.4-2.8,7-4.2l13.5-36.4
		c0.3-0.8,0.4-1.2,1.4-1.2c1,0,1.1,0.2,1.5,1.3l14.2,38.2c0.6,1.7,1.2,2.3,5.1,2.3h1.1v1.9L272.5,93.6z M256.8,57.7l-7.4,20.1h14.9
		L256.8,57.7z"/>
	<path d="M308.4,95.1c-12.1,0-22.3-9.8-22.3-22.2c0-12.4,10.2-22.1,22.3-22.1c6.3,0,10,3.4,12,5.4l3.2-4.7c0.5-0.7,0.7-0.7,1-0.7
		c0.7,0,0.7,0.4,0.7,1.5v14.5c0,1.3,0,1.5-1,1.5c-0.8,0-0.9-0.2-1-1c-1.4-9.4-7.6-14.5-14.2-14.5c-4.2,0-16.7,2.3-16.7,20.3
		c0,17.1,11.5,20.3,16.8,20.3c6.8,0,14-4.9,14.5-13.7c0.1-0.6,0.1-1,0.7-1c0.8,0,0.8,0.4,0.8,1C325.2,86.8,318.7,95.1,308.4,95.1z"
		/>
	<path d="M372.8,66.2c-0.9-10.2-2.1-11.8-11.7-11.8c-1.2,0-2.9,0-3.5,0.1c-1.3,0.2-1.3,0.9-1.3,2.3V89c0,2.1,0,2.9,6.4,2.9h2.4v1.9
		c-2.5-0.2-8.8-0.2-11.6-0.2c-2.8,0-9,0-11.5,0.2v-1.9h2.4c6.4,0,6.4-0.9,6.4-2.9V56.8c0-1.4,0-2.1-1.3-2.3
		c-0.6-0.1-2.4-0.1-3.5-0.1c-9.6,0-10.8,1.6-11.7,11.8h-1.5l1.2-13.7h39.2l1.2,13.7H372.8z"/>
	<path d="M410.9,93.6c-2.3,0-6.6,0-8.8,0.2v-1.9c1.6,0,5,0,5-1.8c0-0.2,0-0.3-0.3-1.1l-3.5-9.3h-16.2l-2.9,7.9
		c-0.3,0.7-0.3,0.9-0.3,1.2c0,1.5,1.4,3.1,4.5,3.1v1.9l-7.1-0.2c-2.4,0-4.9,0.1-6.2,0.2v-1.9c5.4-0.1,6.4-2.8,7-4.2l13.5-36.4
		c0.3-0.8,0.4-1.2,1.4-1.2c1,0,1.1,0.2,1.5,1.3l14.2,38.2c0.6,1.7,1.2,2.3,5.1,2.3h1.1v1.9L410.9,93.6z M395.2,57.7l-7.4,20.1h14.9
		L395.2,57.7z"/>
	<path d="M459.1,93.6c-2.3,0-6.8,0-9,0.2v-1.9h1.5c4.7,0,4.8-0.7,4.8-2.9V73h-19.5v16c0,2.2,0.1,2.9,4.8,2.9h1.5v1.9
		c-2.1-0.2-6.7-0.2-9-0.2c-2.3,0-6.8,0-9,0.2v-1.9h1.5c4.7,0,4.8-0.7,4.8-2.9V56.9c0-2.2-0.1-2.9-4.8-2.9h-1.5v-1.9
		c2.1,0.2,6.7,0.2,9,0.2s6.8,0,9-0.2V54h-1.5c-4.7,0-4.8,0.7-4.8,2.9v14.3h19.5V56.9c0-2.2-0.1-2.9-4.8-2.9h-1.5v-1.9
		c2.1,0.2,6.7,0.2,9,0.2c2.3,0,6.8,0,9-0.2V54h-1.5c-4.7,0-4.8,0.7-4.8,2.9V89c0,2.2,0.1,2.9,4.8,2.9h1.5v1.9
		C466,93.6,461.4,93.6,459.1,93.6z"/>
	<path d="M511.5,58.7v22c0,6-5.2,14.5-14.3,14.5c-8.6,0-16-6.6-16-15.3V56.9c0-2.2-0.1-2.9-4.8-2.9h-1.5v-1.9c2.1,0.2,6.7,0.2,9,0.2
		s6.8,0,9-0.2V54h-1.5c-4.7,0-4.8,0.7-4.8,2.9V80c0,11.5,7.4,13.2,10.7,13.2c6.2,0,12.3-4.9,12.3-13.5V58.5c0-1.6,0-4.5-6.3-4.5
		v-1.9l7.3,0.2l7.2-0.2V54C511.5,54,511.5,56.8,511.5,58.7z"/>
	<path d="M559.9,93.6c-2.3,0-6.6,0-8.8,0.2v-1.9c1.6,0,5,0,5-1.8c0-0.2,0-0.3-0.3-1.1l-3.5-9.3h-16.2l-2.9,7.9
		c-0.3,0.7-0.3,0.9-0.3,1.2c0,1.5,1.4,3.1,4.5,3.1v1.9l-7.1-0.2c-2.4,0-4.9,0.1-6.2,0.2v-1.9c5.4-0.1,6.4-2.8,7-4.2l13.5-36.4
		c0.3-0.8,0.4-1.2,1.4-1.2c1,0,1.1,0.2,1.5,1.3l14.2,38.2c0.6,1.7,1.2,2.3,5.1,2.3h1.1v1.9L559.9,93.6z M544.2,57.7l-7.4,20.1h14.9
		L544.2,57.7z"/>
	<path d="M618.8,93.6c-2.4,0-6.5,0-8.8,0.2v-1.9h1.5c4.7,0,4.8-0.7,4.8-2.9V53.9l-0.1-0.1l-15.8,38.8c-0.2,0.5-0.5,1.1-1.2,1.1
		c-0.6,0-0.9-0.5-1.2-1.1l-15.6-38.4l-0.1,0.1v33c0,1.6,0,4.5,6.3,4.5v1.9l-7.1-0.2l-7.1,0.2v-1.9c6.3,0,6.3-2.9,6.3-4.5V56.9
		c0-2.2-0.1-2.9-4.8-2.9h-1.5v-1.9h10.3c1.3,0,1.6,0,2.1,1.1L601,88l14.2-34.7c0.5-1.2,0.7-1.2,2.1-1.2h10.3V54H626
		c-4.7,0-4.8,0.7-4.8,2.9V89c0,2.2,0.1,2.9,4.8,2.9h1.5v1.9C625.3,93.6,621.2,93.6,618.8,93.6z"/>
	<path d="M669.8,93.6c-2.3,0-6.6,0-8.8,0.2v-1.9c1.6,0,5,0,5-1.8c0-0.2,0-0.3-0.3-1.1l-3.5-9.3H646l-2.9,7.9
		c-0.3,0.7-0.3,0.9-0.3,1.2c0,1.5,1.4,3.1,4.5,3.1v1.9l-7.1-0.2c-2.4,0-4.9,0.1-6.2,0.2v-1.9c5.4-0.1,6.4-2.8,7-4.2l13.5-36.4
		c0.3-0.8,0.4-1.2,1.4-1.2c1,0,1.1,0.2,1.5,1.3l14.2,38.2c0.6,1.7,1.2,2.3,5.1,2.3h1.1v1.9L669.8,93.6z M654.2,57.7l-7.4,20.1h14.9
		L654.2,57.7z"/>
	<path d="M720.8,58.6v33.4c0,1.3,0,1.7-0.9,1.7c-0.3,0-0.6,0-1.1-0.7l-26.7-37.6v31.8c0,1.8,0,4.6,6.3,4.6v1.9l-7.1-0.2l-7.1,0.2
		v-1.9c6.3,0,6.3-2.8,6.3-4.6V55.7c0-0.9,0-1-0.1-1.1c-0.2-0.5-4.5-0.5-6.2-0.5v-1.9h10.3c1.3,0,1.3,0.1,2,0.9l22.6,31.8V58.6
		c0-1.8,0-4.6-6.3-4.6v-1.9l7.1,0.2l7.1-0.2V54C720.8,54,720.8,56.8,720.8,58.6z"/>
	<path d="M742.8,93.6c-2.3,0-7.1,0-9.3,0.2v-1.9h1.6c4.8,0,5-0.7,5-2.9V56.9c0-2.2-0.2-2.9-5-2.9h-1.6v-1.9c2.1,0.2,7,0.2,9.3,0.2
		c2.3,0,7.1,0,9.3-0.2V54h-1.6c-4.8,0-5,0.7-5,2.9V89c0,2.2,0.2,2.9,5,2.9h1.6v1.9C750,93.6,745.2,93.6,742.8,93.6z"/>
</g>
</svg>
